<?xml version="1.0" encoding="UTF-8" standalone="no"?>
<svg
   xmlns:dc="http://purl.org/dc/elements/1.1/"
   xmlns:cc="http://creativecommons.org/ns#"
   xmlns:rdf="http://www.w3.org/1999/02/22-rdf-syntax-ns#"
   xmlns:svg="http://www.w3.org/2000/svg"
   xmlns="http://www.w3.org/2000/svg"
   xmlns:sodipodi="http://sodipodi.sourceforge.net/DTD/sodipodi-0.dtd"
   xmlns:inkscape="http://www.inkscape.org/namespaces/inkscape"
   width="171.99779mm"
   height="188.3705mm"
   viewBox="0 0 171.99779 188.3705"
   version="1.1"
   id="svg8"
   inkscape:version="1.0.1 (3bc2e813f5, 2020-09-07)"
   sodipodi:docname="bin-light.svg">
  <defs
     id="defs2" />
  <sodipodi:namedview
     id="base"
     pagecolor="#ffffff"
     bordercolor="#666666"
     borderopacity="1.0"
     inkscape:pageopacity="0.0"
     inkscape:pageshadow="2"
     inkscape:zoom="0.35355339"
     inkscape:cx="434.18216"
     inkscape:cy="257.60477"
     inkscape:document-units="mm"
     inkscape:current-layer="layer1"
     showgrid="false"
     inkscape:window-width="1920"
     inkscape:window-height="1017"
     inkscape:window-x="1432"
     inkscape:window-y="-8"
     inkscape:window-maximized="1"
     inkscape:document-rotation="0" />
  <metadata
     id="metadata5">
    <rdf:RDF>
      <cc:Work
         rdf:about="">
        <dc:format>image/svg+xml</dc:format>
        <dc:type
           rdf:resource="http://purl.org/dc/dcmitype/StillImage" />
        <dc:title></dc:title>
      </cc:Work>
    </rdf:RDF>
  </metadata>
  <g
     inkscape:label="Layer 1"
     inkscape:groupmode="layer"
     id="layer1"
     transform="translate(-19.88509,-85.978649)">
    <g
       id="g1075"
       style="fill:#ffffff">
      <path
         inkscape:connector-curvature="0"
         id="path1050"
         d="m 83.14583,85.978729 c -0.0763,0 -0.150963,0.0054 -0.224793,0.01344 -0.412911,0.01361 -0.786752,0.187212 -1.07487,0.465604 -0.350829,0.309393 -0.569621,0.743008 -0.569991,1.225248 v 0.0016 c -0.005,0.05799 -0.0083,0.116261 -0.0083,0.1757 v 1.523939 0.161229 c 0,0.05967 0.0033,0.118523 0.0083,0.176734 v 5.472535 H 71.466439 49.780425 c -0.208569,-0.02157 -0.419487,-0.03514 -0.634588,-0.03514 H 25.447026 c -0.225891,0 -0.447438,0.01553 -0.666109,0.03928 -1.222848,0.0403 -2.330485,0.555284 -3.183785,1.37976 -1.039018,0.916297 -1.686651,2.199492 -1.687752,3.627682 v 0.005 c -0.01429,0.17174 -0.02429,0.34538 -0.02429,0.52142 v 4.51238 0.4775 c 0,0.17673 0.01,0.35108 0.02429,0.52348 v 16.35921 c 0,2.79848 2.469906,5.05137 5.537646,5.05137 h 23.698811 c 3.067741,0 5.537647,-2.25289 5.537647,-5.05137 v -11.34504 h 16.782955 15.102954 0.529166 16.538011 21.03283 15.63212 16.78295 v 11.34504 c 0,2.79849 2.46991,5.05137 5.53765,5.05137 h 23.69881 c 3.06775,0 5.53764,-2.25288 5.53764,-5.05137 v -16.35932 c 0.0143,-0.1724 0.0243,-0.34675 0.0243,-0.52348 v -0.47749 -4.51239 c 0,-0.17604 -0.01,-0.34967 -0.0243,-0.52141 v -0.005 c -10e-4,-1.428198 -0.64873,-2.711396 -1.68775,-3.62769 -0.8533,-0.824476 -1.96093,-1.339464 -3.18378,-1.37976 -0.21867,-0.02373 -0.44021,-0.03927 -0.66611,-0.03927 h -23.69881 c -0.2151,0 -0.42603,0.01357 -0.63459,0.03514 h -21.68601 -9.80974 v -5.472017 c 0.005,-0.05821 0.008,-0.11706 0.008,-0.176734 V 89.38418 87.860241 c 0,-0.05944 -0.003,-0.117711 -0.008,-0.1757 v -0.0016 c -3.3e-4,-0.482243 -0.21916,-0.915855 -0.56999,-1.225248 -0.28812,-0.278392 -0.66196,-0.451996 -1.07487,-0.465604 -0.0738,-0.008 -0.14852,-0.01344 -0.2248,-0.01344 h -8.00209 c -0.0726,0 -0.14404,0.0046 -0.21446,0.01189 h -7.32255 -7.19904 -7.199047 -7.322553 c -0.0704,-0.0073 -0.141827,-0.01189 -0.214455,-0.01189 z m 9.872265,5.436362 h 5.666838 7.199047 7.19904 5.66736 v 3.779615 H 103.63657 93.018095 Z"
         style="opacity:1;fill:#ffffff;fill-opacity:1;stroke:none;stroke-width:2.5;stroke-linecap:round;stroke-linejoin:round;stroke-miterlimit:4;stroke-dasharray:none;stroke-opacity:1;paint-order:stroke fill markers" />
      <path
         id="path916-6"
         transform="scale(0.26458333)"
         d="m 233.24609,488.12109 -89.57031,0.002 c -0.85376,0 -1.69111,0.0573 -2.51758,0.14648 -4.62179,0.1508 -8.80813,2.07383 -12.0332,5.1543 -3.927,3.42349 -6.37475,8.21864 -6.37891,13.55469 v 0.0176 c -0.054,0.64165 -0.0918,1.29147 -0.0918,1.94922 v 16.85938 1.7832 c 0,0.66032 0.0377,1.31292 0.0918,1.95703 v 18.73242 42.38868 133.29296 31.81641 178.58984 31.29493 29.82812 c -0.054,0.64411 -0.0918,1.29476 -0.0918,1.95508 v 1.78516 16.85741 c 0,0.6578 0.0378,1.3076 0.0918,1.9493 v 0.019 c 0.004,5.336 2.4519,10.1292 6.37891,13.5527 3.22507,3.0805 7.41142,5.0055 12.0332,5.1563 0.82648,0.089 1.66382,0.1465 2.51758,0.1465 h 89.57031 c 0.81298,0 1.61015,-0.05 2.39844,-0.1309 h 81.96289 80.58399 80.58398 81.96289 c 0.7883,0.08 1.58546,0.1309 2.39844,0.1309 h 89.57031 c 0.85376,0 1.69111,-0.058 2.51758,-0.1465 4.62179,-0.1505 8.80813,-2.0758 12.0332,-5.1563 3.92697,-3.4235 6.37513,-8.2166 6.37891,-13.5527 v -0.019 c 0.0541,-0.6417 0.0918,-1.2896 0.0918,-1.9473 v -16.85941 -1.78516 c 0,-0.66032 -0.0377,-1.31093 -0.0918,-1.95508 V 965.47266 934.36523 755.77539 723.77148 590.66602 548.27734 529.54492 c 0.0541,-0.64414 0.0918,-1.29671 0.0918,-1.95703 v -1.7832 -16.85938 c 0,-0.65771 -0.0377,-1.3076 -0.0918,-1.94922 v -0.0176 c -0.004,-5.33617 -2.4519,-10.13116 -6.37891,-13.55469 -3.22507,-3.08043 -7.41141,-5.0038 -12.0332,-5.1543 -0.82647,-0.0884 -1.66382,-0.14844 -2.51758,-0.14844 h -89.57031 c -0.81298,0 -1.61014,0.0527 -2.39844,0.13282 h -81.96289 -80.58398 -80.58399 -81.96289 c -0.78826,-0.0809 -1.58546,-0.13282 -2.39844,-0.13282 z m 20.92969,60.15625 h 63.43164 14.89063 v 195.21875 12.2793 220.97852 h -14.89063 -63.43164 v -42.38868 c 0,-0.3905 -0.0174,-0.77566 -0.043,-1.16015 V 755.77539 723.95898 591.82812 c 0.0257,-0.38447 0.043,-0.77161 0.043,-1.1621 z m 209.70899,0 h 14.89062 63.43164 v 42.38868 c 0,0.39049 0.0173,0.77763 0.043,1.1621 v 131.94336 32.00391 177.42969 c -0.0265,0.38449 -0.043,0.76965 -0.043,1.16015 v 42.38868 h -63.43164 -14.89062 v -220.97852 -12.2793 z"
         style="opacity:1;fill:#ffffff;fill-opacity:1;stroke:none;stroke-width:9.39454;stroke-linecap:round;stroke-linejoin:round;stroke-miterlimit:4;stroke-dasharray:none;stroke-opacity:1;paint-order:stroke fill markers" />
    </g>
  </g>
</svg>
