<?xml version="1.0" encoding="UTF-8" standalone="no"?>
<!-- Created with Inkscape (http://www.inkscape.org/) -->

<svg
   xmlns:dc="http://purl.org/dc/elements/1.1/"
   xmlns:cc="http://creativecommons.org/ns#"
   xmlns:rdf="http://www.w3.org/1999/02/22-rdf-syntax-ns#"
   xmlns:svg="http://www.w3.org/2000/svg"
   xmlns="http://www.w3.org/2000/svg"
   xmlns:sodipodi="http://sodipodi.sourceforge.net/DTD/sodipodi-0.dtd"
   xmlns:inkscape="http://www.inkscape.org/namespaces/inkscape"
   width="210mm"
   height="297mm"
   viewBox="0 0 210 297"
   version="1.1"
   id="svg8"
   inkscape:version="0.92.3 (2405546, 2018-03-11)"
   sodipodi:docname="bin.svg">
  <defs
     id="defs2" />
  <sodipodi:namedview
     id="base"
     pagecolor="#ffffff"
     bordercolor="#666666"
     borderopacity="1.0"
     inkscape:pageopacity="0.0"
     inkscape:pageshadow="2"
     inkscape:zoom="0.35355339"
     inkscape:cx="509.33841"
     inkscape:cy="582.56344"
     inkscape:document-units="mm"
     inkscape:current-layer="layer1"
     showgrid="false"
     inkscape:window-width="1920"
     inkscape:window-height="1017"
     inkscape:window-x="-8"
     inkscape:window-y="-8"
     inkscape:window-maximized="1" />
  <metadata
     id="metadata5">
    <rdf:RDF>
      <cc:Work
         rdf:about="">
        <dc:format>image/svg+xml</dc:format>
        <dc:type
           rdf:resource="http://purl.org/dc/dcmitype/StillImage" />
        <dc:title></dc:title>
      </cc:Work>
    </rdf:RDF>
  </metadata>
  <g
     inkscape:label="Layer 1"
     inkscape:groupmode="layer"
     id="layer1">
    <g
       id="g1075"
       style="fill:#333333">
      <path
         inkscape:connector-curvature="0"
         id="path1050"
         d="m 83.14583,85.978729 c -0.0763,0 -0.150963,0.0054 -0.224793,0.01344 -0.412911,0.01361 -0.786752,0.187212 -1.07487,0.465604 -0.350829,0.309393 -0.569621,0.743008 -0.569991,1.225248 v 0.0016 c -0.005,0.05799 -0.0083,0.116261 -0.0083,0.1757 v 1.523939 0.161229 c 0,0.05967 0.0033,0.118523 0.0083,0.176734 v 5.472535 H 71.466439 49.780425 c -0.208569,-0.02157 -0.419487,-0.03514 -0.634588,-0.03514 H 25.447026 c -0.225891,0 -0.447438,0.01553 -0.666109,0.03928 -1.222848,0.0403 -2.330485,0.555284 -3.183785,1.37976 -1.039018,0.916297 -1.686651,2.199492 -1.687752,3.627682 v 0.005 c -0.01429,0.17174 -0.02429,0.34538 -0.02429,0.52142 v 4.51238 0.4775 c 0,0.17673 0.01,0.35108 0.02429,0.52348 v 16.35921 c 0,2.79848 2.469906,5.05137 5.537646,5.05137 h 23.698811 c 3.067741,0 5.537647,-2.25289 5.537647,-5.05137 v -11.34504 h 16.782955 15.102954 0.529166 16.538011 21.03283 15.63212 16.78295 v 11.34504 c 0,2.79849 2.46991,5.05137 5.53765,5.05137 h 23.69881 c 3.06775,0 5.53764,-2.25288 5.53764,-5.05137 v -16.35932 c 0.0143,-0.1724 0.0243,-0.34675 0.0243,-0.52348 v -0.47749 -4.51239 c 0,-0.17604 -0.01,-0.34967 -0.0243,-0.52141 v -0.005 c -10e-4,-1.428198 -0.64873,-2.711396 -1.68775,-3.62769 -0.8533,-0.824476 -1.96093,-1.339464 -3.18378,-1.37976 -0.21867,-0.02373 -0.44021,-0.03927 -0.66611,-0.03927 h -23.69881 c -0.2151,0 -0.42603,0.01357 -0.63459,0.03514 h -21.68601 -9.80974 v -5.472017 c 0.005,-0.05821 0.008,-0.11706 0.008,-0.176734 V 89.38418 87.860241 c 0,-0.05944 -0.003,-0.117711 -0.008,-0.1757 v -0.0016 c -3.3e-4,-0.482243 -0.21916,-0.915855 -0.56999,-1.225248 -0.28812,-0.278392 -0.66196,-0.451996 -1.07487,-0.465604 -0.0738,-0.008 -0.14852,-0.01344 -0.2248,-0.01344 h -8.00209 c -0.0726,0 -0.14404,0.0046 -0.21446,0.01189 h -7.32255 -7.19904 -7.199047 -7.322553 c -0.0704,-0.0073 -0.141827,-0.01189 -0.214455,-0.01189 z m 9.872265,5.436362 h 5.666838 7.199047 7.19904 5.66736 v 3.779615 H 103.63657 93.018095 Z"
         style="opacity:1;fill:#333333;fill-opacity:1;stroke:none;stroke-width:2.5;stroke-linecap:round;stroke-linejoin:round;stroke-miterlimit:4;stroke-dasharray:none;stroke-opacity:1;paint-order:stroke fill markers" />
      <path
         id="path916-6"
         transform="scale(0.26458333)"
         d="M 233.24609 488.12109 L 143.67578 488.12305 C 142.82202 488.12305 141.98467 488.18033 141.1582 488.26953 C 136.53641 488.42033 132.35007 490.34336 129.125 493.42383 C 125.198 496.84732 122.75025 501.64247 122.74609 506.97852 L 122.74609 506.99609 C 122.69205 507.63774 122.6543 508.28756 122.6543 508.94531 L 122.6543 525.80469 L 122.6543 527.58789 C 122.6543 528.24821 122.69205 528.90081 122.74609 529.54492 L 122.74609 548.27734 L 122.74609 590.66602 L 122.74609 723.95898 L 122.74609 755.77539 L 122.74609 934.36523 L 122.74609 965.66016 L 122.74609 995.48828 C 122.69208 996.13239 122.6543 996.78304 122.6543 997.44336 L 122.6543 999.22852 L 122.6543 1016.0859 C 122.6543 1016.7437 122.69208 1017.3935 122.74609 1018.0352 L 122.74609 1018.0547 C 122.75025 1023.3907 125.19799 1028.1839 129.125 1031.6074 C 132.35007 1034.6879 136.53642 1036.6129 141.1582 1036.7637 C 141.98468 1036.8529 142.82202 1036.9102 143.67578 1036.9102 L 233.24609 1036.9102 C 234.05907 1036.9102 234.85624 1036.8602 235.64453 1036.7793 L 317.60742 1036.7793 L 398.19141 1036.7793 L 478.77539 1036.7793 L 560.73828 1036.7793 C 561.52658 1036.8594 562.32374 1036.9102 563.13672 1036.9102 L 652.70703 1036.9102 C 653.56079 1036.9102 654.39814 1036.8521 655.22461 1036.7637 C 659.8464 1036.6132 664.03274 1034.6879 667.25781 1031.6074 C 671.18478 1028.1839 673.63294 1023.3908 673.63672 1018.0547 L 673.63672 1018.0352 C 673.69077 1017.3935 673.72852 1016.7456 673.72852 1016.0879 L 673.72852 999.22852 L 673.72852 997.44336 C 673.72852 996.78304 673.69077 996.13243 673.63672 995.48828 L 673.63672 965.47266 L 673.63672 934.36523 L 673.63672 755.77539 L 673.63672 723.77148 L 673.63672 590.66602 L 673.63672 548.27734 L 673.63672 529.54492 C 673.69077 528.90078 673.72852 528.24821 673.72852 527.58789 L 673.72852 525.80469 L 673.72852 508.94531 C 673.72852 508.2876 673.69077 507.63771 673.63672 506.99609 L 673.63672 506.97852 C 673.63294 501.64235 671.18482 496.84736 667.25781 493.42383 C 664.03274 490.3434 659.8464 488.42003 655.22461 488.26953 C 654.39814 488.18109 653.56079 488.12109 652.70703 488.12109 L 563.13672 488.12109 C 562.32374 488.12109 561.52658 488.17378 560.73828 488.25391 L 478.77539 488.25391 L 398.19141 488.25391 L 317.60742 488.25391 L 235.64453 488.25391 C 234.85627 488.17302 234.05907 488.12109 233.24609 488.12109 z M 254.17578 548.27734 L 317.60742 548.27734 L 332.49805 548.27734 L 332.49805 743.49609 L 332.49805 755.77539 L 332.49805 976.75391 L 317.60742 976.75391 L 254.17578 976.75391 L 254.17578 934.36523 C 254.17578 933.97473 254.1584 933.58957 254.13281 933.20508 L 254.13281 755.77539 L 254.13281 723.95898 L 254.13281 591.82812 C 254.15849 591.44365 254.17578 591.05651 254.17578 590.66602 L 254.17578 548.27734 z M 463.88477 548.27734 L 478.77539 548.27734 L 542.20703 548.27734 L 542.20703 590.66602 C 542.20703 591.05651 542.22433 591.44365 542.25 591.82812 L 542.25 723.77148 L 542.25 755.77539 L 542.25 933.20508 C 542.22354 933.58957 542.20703 933.97473 542.20703 934.36523 L 542.20703 976.75391 L 478.77539 976.75391 L 463.88477 976.75391 L 463.88477 755.77539 L 463.88477 743.49609 L 463.88477 548.27734 z "
         style="opacity:1;fill:#333333;fill-opacity:1;stroke:none;stroke-width:9.39453983;stroke-linecap:round;stroke-linejoin:round;stroke-miterlimit:4;stroke-dasharray:none;stroke-opacity:1;paint-order:stroke fill markers" />
    </g>
  </g>
</svg>
