<?xml version="1.0" encoding="UTF-8" standalone="no"?>
<!-- Created with Inkscape (http://www.inkscape.org/) -->

<svg
   xmlns:dc="http://purl.org/dc/elements/1.1/"
   xmlns:cc="http://creativecommons.org/ns#"
   xmlns:rdf="http://www.w3.org/1999/02/22-rdf-syntax-ns#"
   xmlns:svg="http://www.w3.org/2000/svg"
   xmlns="http://www.w3.org/2000/svg"
   xmlns:sodipodi="http://sodipodi.sourceforge.net/DTD/sodipodi-0.dtd"
   xmlns:inkscape="http://www.inkscape.org/namespaces/inkscape"
   width="76.748367mm"
   height="108.74166mm"
   viewBox="0 0 76.748368 108.74166"
   version="1.1"
   id="svg8"
   sodipodi:docname="grayArrowUp.svg"
   inkscape:version="0.92.3 (2405546, 2018-03-11)">
  <defs
     id="defs2">
    <inkscape:path-effect
       effect="knot"
       id="path-effect3721"
       is_visible="true"
       interruption_width="3"
       prop_to_stroke_width="true"
       add_stroke_width="true"
       add_other_stroke_width="true"
       switcher_size="15"
       crossing_points_vector="" />
  </defs>
  <sodipodi:namedview
     id="base"
     pagecolor="#ffffff"
     bordercolor="#666666"
     borderopacity="1.0"
     inkscape:pageopacity="0.0"
     inkscape:pageshadow="2"
     inkscape:zoom="1.4142136"
     inkscape:cx="143.94726"
     inkscape:cy="310.99276"
     inkscape:document-units="mm"
     inkscape:current-layer="layer1"
     showgrid="false"
     inkscape:lockguides="true"
     inkscape:window-width="1920"
     inkscape:window-height="1017"
     inkscape:window-x="-8"
     inkscape:window-y="-8"
     inkscape:window-maximized="1" />
  <metadata
     id="metadata5">
    <rdf:RDF>
      <cc:Work
         rdf:about="">
        <dc:format>image/svg+xml</dc:format>
        <dc:type
           rdf:resource="http://purl.org/dc/dcmitype/StillImage" />
        <dc:title />
      </cc:Work>
    </rdf:RDF>
  </metadata>
  <g
     inkscape:label="Layer 1"
     inkscape:groupmode="layer"
     id="layer1"
     transform="translate(-118.31233,-21.022392)">
    <path
       id="path3823"
       d="m 207.7555,292.95118 c 0.0473,-0.0836 0.091,-0.16807 0.13369,-0.25329 l -0.003,-0.002 c 1.0636,-2.13008 0.21774,-4.0615 -1.13824,-6.37508 l -3.09598,-5.2793 -8.2327,14.47713 6.1218,-0.0415 c 2.68161,-0.0176 4.77397,-0.27807 6.0608,-2.28119 l 0.003,0.002 c 0.0513,-0.0803 0.1019,-0.161 0.14934,-0.24443 z"
       style="opacity:1;fill:#aa4400;fill-opacity:1;stroke:none;stroke-width:0.96825588;stroke-linecap:round;stroke-linejoin:round;stroke-miterlimit:4;stroke-dasharray:none;stroke-opacity:1;paint-order:stroke fill markers"
       inkscape:connector-curvature="0" />
    <path
       style="opacity:1;fill:#666666;fill-opacity:1;stroke:none;stroke-width:0.96825588;stroke-linecap:round;stroke-linejoin:round;stroke-miterlimit:4;stroke-dasharray:none;stroke-opacity:1;paint-order:stroke fill markers"
       d="m 156.67087,21.022392 -0.004,0.001 c -0.096,1.01e-4 -0.19108,0.0043 -0.28628,0.0093 v 0.0036 c -2.29673,0.12406 -3.55169,1.712754 -4.84312,3.913972 l -31.63476,54.825598 c -1.34106,2.32227 -2.17451,4.25893 -1.09709,6.38204 l -0.003,0.002 c 0.0433,0.0849 0.0874,0.1696 0.13539,0.25269 4.2e-4,8e-4 10e-4,0.002 0.002,0.003 0.0479,0.0828 0.0987,0.16266 0.15038,0.24237 l 0.003,-0.002 c 1.29984,1.99472 3.39392,2.24166 6.0756,2.24172 l 13.37024,-0.004 V 124.2264 c 0,3.06775 2.2529,5.53765 5.05137,5.53765 h 26.1922 c 2.79848,0 5.05138,-2.4699 5.05138,-5.53764 V 88.884412 l 13.51493,-0.004 c 2.6099,-0.009 4.65372,-0.2818 5.92936,-2.23914 l 0.003,0.002 c 0.0519,-0.0799 0.10343,-0.1603 0.15141,-0.24339 2.6e-4,-5.3e-4 7.9e-4,-0.002 0.002,-0.003 v -5.3e-4 c 0.0478,-0.0831 0.0921,-0.16687 0.13539,-0.25167 l -0.003,-0.002 c 1.07758,-2.12312 0.24422,-4.0602 -1.09656,-6.38263 L 180.94743,58.082662 161.93619,25.176144 c -1.34084,-2.322391 -2.60165,-4.012424 -4.97903,-4.140835 v -0.0041 c -0.0952,-0.005 -0.19033,-0.0088 -0.28629,-0.0088 z"
       id="path10-8"
       inkscape:connector-curvature="0" />
    <path
       style="opacity:1;fill:#cccccc;fill-opacity:1;stroke:none;stroke-width:0.9076367;stroke-linecap:round;stroke-linejoin:round;stroke-miterlimit:4;stroke-dasharray:none;stroke-opacity:1;paint-order:stroke fill markers"
       d="m 156.60576,23.378838 -0.004,0.0021 c -0.0897,9e-5 -0.1782,0.0038 -0.26717,0.0088 v 0.0041 c -2.14632,0.116649 -3.31948,1.610635 -4.52633,3.680393 l -29.56307,51.551361 c -1.25324,2.18359 -2.03213,4.00435 -1.02526,6.00067 l -0.003,0.002 c 0.0404,0.0799 0.0818,0.15958 0.1266,0.23771 4e-4,7.9e-4 6.4e-4,0.002 0.001,0.003 0.0448,0.0779 0.0923,0.15296 0.14056,0.22789 l 0.003,-0.002 c 1.21472,1.87559 3.17163,2.10781 5.67769,2.10788 l 13.09222,-0.004 v 35.933708 c 0,2.85217 2.03958,5.14801 4.57285,5.14801 h 23.71018 c 2.53327,0 4.57234,-2.29584 4.57234,-5.14801 V 87.189432 l 13.09532,-0.004 c 2.43897,-0.009 4.34866,-0.26483 5.54075,-2.1053 l 0.003,0.002 c 0.0484,-0.0751 0.0968,-0.15027 0.14159,-0.22841 2.6e-4,-5.3e-4 8e-4,-0.002 0.002,-0.003 v -5.3e-4 c 0.0447,-0.0781 0.0862,-0.15694 0.12661,-0.23668 l -0.003,-0.002 c 1.007,-1.99627 0.22823,-3.81743 -1.02474,-6.00118 L 179.29224,58.226842 161.52639,27.285059 c -1.25303,-2.18371 -2.43126,-3.772564 -4.65294,-3.893304 v -0.0041 c -0.0889,-0.005 -0.17801,-0.0088 -0.26769,-0.0088 z"
       id="path10-9-9"
       inkscape:connector-curvature="0" />
  </g>
</svg>
