<?xml version="1.0" encoding="UTF-8" standalone="no"?>
<!-- Generator: Adobe Illustrator 19.2.1, SVG Export Plug-In . SVG Version: 6.00 Build 0)  -->

<svg
   xmlns:dc="http://purl.org/dc/elements/1.1/"
   xmlns:cc="http://creativecommons.org/ns#"
   xmlns:rdf="http://www.w3.org/1999/02/22-rdf-syntax-ns#"
   xmlns:svg="http://www.w3.org/2000/svg"
   xmlns="http://www.w3.org/2000/svg"
   xmlns:sodipodi="http://sodipodi.sourceforge.net/DTD/sodipodi-0.dtd"
   xmlns:inkscape="http://www.inkscape.org/namespaces/inkscape"
   version="1.1"
   id="DESIGNS"
   x="0px"
   y="0px"
   width="32px"
   height="32px"
   viewBox="0 0 32 32"
   style="enable-background:new 0 0 32 32;"
   xml:space="preserve"
   sodipodi:docname="pin.svg"
   inkscape:version="0.92.3 (2405546, 2018-03-11)"><defs
   id="defs13" /><sodipodi:namedview
   pagecolor="#ffffff"
   bordercolor="#666666"
   borderopacity="1"
   objecttolerance="10"
   gridtolerance="10"
   guidetolerance="10"
   inkscape:pageopacity="0"
   inkscape:pageshadow="2"
   inkscape:window-width="1920"
   inkscape:window-height="1017"
   id="namedview11"
   showgrid="false"
   inkscape:zoom="7.375"
   inkscape:cx="1.559322"
   inkscape:cy="16"
   inkscape:window-x="-8"
   inkscape:window-y="-8"
   inkscape:window-maximized="1"
   inkscape:current-layer="DESIGNS" />
<title
   property="dc:title"
   id="title2">to pin</title><desc
   property="dc:description"
   id="desc4">An icon for &quot;pin&quot; from the Stone series on to [icon]. Downloaded from http://www.toicon.com/icons/stone_pin by 127.0.0.1 on 2017-07-10. Licensed CC-BY, see http://toicon.com/license/ for details.</desc>
<path
   class="stone_een"
   d="M30.5,30.5c-0.148,0.148-0.344,0.224-0.54,0.224c-0.176,0-0.353-0.061-0.497-0.184l-11.084-9.505  l2.659-2.659l9.501,11.087C30.799,29.766,30.782,30.218,30.5,30.5z M24.293,12.293l-0.879-0.879  c-0.391-0.391-0.902-0.586-1.414-0.586s-1.024,0.195-1.414,0.586L20.45,11.55l-8.807-7.206c0.717-0.785,0.702-1.999-0.057-2.758  l-0.879-0.879c-0.391-0.391-1.024-0.391-1.414,0L0.707,9.293c-0.391,0.391-0.391,1.024,0,1.414l0.879,0.879  c0.389,0.389,0.897,0.582,1.406,0.582c0.485,0,0.97-0.176,1.352-0.525l7.206,8.807l-0.136,0.136c-0.781,0.781-0.781,2.047,0,2.828  l0.879,0.879c0.391,0.391,1.024,0.391,1.414,0l10.586-10.586C24.683,13.317,24.683,12.683,24.293,12.293z"
   style="fill:#ffffff"
   id="path6" />
<metadata
   id="metadata8"><work
     rdf:about=""><format>image/svg+xml</format><type
       rdf:resource="http://purl.org/dc/dcmitype/StillImage" /><license
       rdf:resource="http://creativecommons.org/licenses/by/4.0/" /><attributionname>Shannon E Thomas</attributionname><attributionurl>http://www.toicon.com/icons/stone_pin</attributionurl></work><rdf:RDF><cc:Work
       rdf:about=""><dc:format>image/svg+xml</dc:format><dc:type
         rdf:resource="http://purl.org/dc/dcmitype/StillImage" /></cc:Work></rdf:RDF></metadata></svg>