<svg version="1.1" xmlns="http://www.w3.org/2000/svg" width="500" height="433"><polygon points="0,433 7,433 3,426" fill="#000000" /><polygon points="7,433 15,433 11,426" fill="#000000" /><polygon points="3,426 11,426 7,419" fill="#000000" /><polygon points="15,433 23,433 19,426" fill="#000000" /><polygon points="23,433 31,433 27,426" fill="#000000" /><polygon points="19,426 27,426 23,419" fill="#000000" /><polygon points="7,419 15,419 11,412" fill="#000000" /><polygon points="15,419 23,419 19,412" fill="#000000" /><polygon points="11,412 19,412 15,405" fill="#000000" /><polygon points="31,433 39,433 35,426" fill="#000000" /><polygon points="39,433 46,433 42,426" fill="#000000" /><polygon points="35,426 42,426 39,419" fill="#000000" /><polygon points="46,433 54,433 50,426" fill="#000000" /><polygon points="54,433 62,433 58,426" fill="#000000" /><polygon points="50,426 58,426 54,419" fill="#000000" /><polygon points="39,419 46,419 42,412" fill="#000000" /><polygon points="46,419 54,419 50,412" fill="#000000" /><polygon points="42,412 50,412 46,405" fill="#000000" /><polygon points="15,405 23,405 19,399" fill="#000000" /><polygon points="23,405 31,405 27,399" fill="#000000" /><polygon points="19,399 27,399 23,392" fill="#000000" /><polygon points="31,405 39,405 35,399" fill="#000000" /><polygon points="39,405 46,405 42,399" fill="#000000" /><polygon points="35,399 42,399 39,392" fill="#000000" /><polygon points="23,392 31,392 27,385" fill="#000000" /><polygon points="31,392 39,392 35,385" fill="#000000" /><polygon points="27,385 35,385 31,378" fill="#000000" /><polygon points="62,433 70,433 66,426" fill="#000000" /><polygon points="70,433 78,433 74,426" fill="#000000" /><polygon points="66,426 74,426 70,419" fill="#000000" /><polygon points="78,433 85,433 82,426" fill="#000000" /><polygon points="85,433 93,433 89,426" fill="#000000" /><polygon points="82,426 89,426 85,419" fill="#000000" /><polygon points="70,419 78,419 74,412" fill="#000000" /><polygon points="78,419 85,419 82,412" fill="#000000" /><polygon points="74,412 82,412 78,405" fill="#000000" /><polygon points="93,433 101,433 97,426" fill="#000000" /><polygon points="101,433 109,433 105,426" fill="#000000" /><polygon points="97,426 105,426 101,419" fill="#000000" /><polygon points="109,433 117,433 113,426" fill="#000000" /><polygon points="117,433 125,433 121,426" fill="#000000" /><polygon points="113,426 121,426 117,419" fill="#000000" /><polygon points="101,419 109,419 105,412" fill="#000000" /><polygon points="109,419 117,419 113,412" fill="#000000" /><polygon points="105,412 113,412 109,405" fill="#000000" /><polygon points="78,405 85,405 82,399" fill="#000000" /><polygon points="85,405 93,405 89,399" fill="#000000" /><polygon points="82,399 89,399 85,392" fill="#000000" /><polygon points="93,405 101,405 97,399" fill="#000000" /><polygon points="101,405 109,405 105,399" fill="#000000" /><polygon points="97,399 105,399 101,392" fill="#000000" /><polygon points="85,392 93,392 89,385" fill="#000000" /><polygon points="93,392 101,392 97,385" fill="#000000" /><polygon points="89,385 97,385 93,378" fill="#000000" /><polygon points="31,378 39,378 35,372" fill="#000000" /><polygon points="39,378 46,378 42,372" fill="#000000" /><polygon points="35,372 42,372 39,365" fill="#000000" /><polygon points="46,378 54,378 50,372" fill="#000000" /><polygon points="54,378 62,378 58,372" fill="#000000" /><polygon points="50,372 58,372 54,365" fill="#000000" /><polygon points="39,365 46,365 42,358" fill="#000000" /><polygon points="46,365 54,365 50,358" fill="#000000" /><polygon points="42,358 50,358 46,351" fill="#000000" /><polygon points="62,378 70,378 66,372" fill="#000000" /><polygon points="70,378 78,378 74,372" fill="#000000" /><polygon points="66,372 74,372 70,365" fill="#000000" /><polygon points="78,378 85,378 82,372" fill="#000000" /><polygon points="85,378 93,378 89,372" fill="#000000" /><polygon points="82,372 89,372 85,365" fill="#000000" /><polygon points="70,365 78,365 74,358" fill="#000000" /><polygon points="78,365 85,365 82,358" fill="#000000" /><polygon points="74,358 82,358 78,351" fill="#000000" /><polygon points="46,351 54,351 50,345" fill="#000000" /><polygon points="54,351 62,351 58,345" fill="#000000" /><polygon points="50,345 58,345 54,338" fill="#000000" /><polygon points="62,351 70,351 66,345" fill="#000000" /><polygon points="70,351 78,351 74,345" fill="#000000" /><polygon points="66,345 74,345 70,338" fill="#000000" /><polygon points="54,338 62,338 58,331" fill="#000000" /><polygon points="62,338 70,338 66,331" fill="#000000" /><polygon points="58,331 66,331 62,324" fill="#000000" /><polygon points="125,433 132,433 128,426" fill="#000000" /><polygon points="132,433 140,433 136,426" fill="#000000" /><polygon points="128,426 136,426 132,419" fill="#000000" /><polygon points="140,433 148,433 144,426" fill="#000000" /><polygon points="148,433 156,433 152,426" fill="#000000" /><polygon points="144,426 152,426 148,419" fill="#000000" /><polygon points="132,419 140,419 136,412" fill="#000000" /><polygon points="140,419 148,419 144,412" fill="#000000" /><polygon points="136,412 144,412 140,405" fill="#000000" /><polygon points="156,433 164,433 160,426" fill="#000000" /><polygon points="164,433 171,433 167,426" fill="#000000" /><polygon points="160,426 167,426 164,419" fill="#000000" /><polygon points="171,433 179,433 175,426" fill="#000000" /><polygon points="179,433 187,433 183,426" fill="#000000" /><polygon points="175,426 183,426 179,419" fill="#000000" /><polygon points="164,419 171,419 167,412" fill="#000000" /><polygon points="171,419 179,419 175,412" fill="#000000" /><polygon points="167,412 175,412 171,405" fill="#000000" /><polygon points="140,405 148,405 144,399" fill="#000000" /><polygon points="148,405 156,405 152,399" fill="#000000" /><polygon points="144,399 152,399 148,392" fill="#000000" /><polygon points="156,405 164,405 160,399" fill="#000000" /><polygon points="164,405 171,405 167,399" fill="#000000" /><polygon points="160,399 167,399 164,392" fill="#000000" /><polygon points="148,392 156,392 152,385" fill="#000000" /><polygon points="156,392 164,392 160,385" fill="#000000" /><polygon points="152,385 160,385 156,378" fill="#000000" /><polygon points="187,433 195,433 191,426" fill="#000000" /><polygon points="195,433 203,433 199,426" fill="#000000" /><polygon points="191,426 199,426 195,419" fill="#000000" /><polygon points="203,433 210,433 207,426" fill="#000000" /><polygon points="210,433 218,433 214,426" fill="#000000" /><polygon points="207,426 214,426 210,419" fill="#000000" /><polygon points="195,419 203,419 199,412" fill="#000000" /><polygon points="203,419 210,419 207,412" fill="#000000" /><polygon points="199,412 207,412 203,405" fill="#000000" /><polygon points="218,433 226,433 222,426" fill="#000000" /><polygon points="226,433 234,433 230,426" fill="#000000" /><polygon points="222,426 230,426 226,419" fill="#000000" /><polygon points="234,433 242,433 238,426" fill="#000000" /><polygon points="242,433 250,433 246,426" fill="#000000" /><polygon points="238,426 246,426 242,419" fill="#000000" /><polygon points="226,419 234,419 230,412" fill="#000000" /><polygon points="234,419 242,419 238,412" fill="#000000" /><polygon points="230,412 238,412 234,405" fill="#000000" /><polygon points="203,405 210,405 207,399" fill="#000000" /><polygon points="210,405 218,405 214,399" fill="#000000" /><polygon points="207,399 214,399 210,392" fill="#000000" /><polygon points="218,405 226,405 222,399" fill="#000000" /><polygon points="226,405 234,405 230,399" fill="#000000" /><polygon points="222,399 230,399 226,392" fill="#000000" /><polygon points="210,392 218,392 214,385" fill="#000000" /><polygon points="218,392 226,392 222,385" fill="#000000" /><polygon points="214,385 222,385 218,378" fill="#000000" /><polygon points="156,378 164,378 160,372" fill="#000000" /><polygon points="164,378 171,378 167,372" fill="#000000" /><polygon points="160,372 167,372 164,365" fill="#000000" /><polygon points="171,378 179,378 175,372" fill="#000000" /><polygon points="179,378 187,378 183,372" fill="#000000" /><polygon points="175,372 183,372 179,365" fill="#000000" /><polygon points="164,365 171,365 167,358" fill="#000000" /><polygon points="171,365 179,365 175,358" fill="#000000" /><polygon points="167,358 175,358 171,351" fill="#000000" /><polygon points="187,378 195,378 191,372" fill="#000000" /><polygon points="195,378 203,378 199,372" fill="#000000" /><polygon points="191,372 199,372 195,365" fill="#000000" /><polygon points="203,378 210,378 207,372" fill="#000000" /><polygon points="210,378 218,378 214,372" fill="#000000" /><polygon points="207,372 214,372 210,365" fill="#000000" /><polygon points="195,365 203,365 199,358" fill="#000000" /><polygon points="203,365 210,365 207,358" fill="#000000" /><polygon points="199,358 207,358 203,351" fill="#000000" /><polygon points="171,351 179,351 175,345" fill="#000000" /><polygon points="179,351 187,351 183,345" fill="#000000" /><polygon points="175,345 183,345 179,338" fill="#000000" /><polygon points="187,351 195,351 191,345" fill="#000000" /><polygon points="195,351 203,351 199,345" fill="#000000" /><polygon points="191,345 199,345 195,338" fill="#000000" /><polygon points="179,338 187,338 183,331" fill="#000000" /><polygon points="187,338 195,338 191,331" fill="#000000" /><polygon points="183,331 191,331 187,324" fill="#000000" /><polygon points="62,324 70,324 66,317" fill="#000000" /><polygon points="70,324 78,324 74,317" fill="#000000" /><polygon points="66,317 74,317 70,311" fill="#000000" /><polygon points="78,324 85,324 82,317" fill="#000000" /><polygon points="85,324 93,324 89,317" fill="#000000" /><polygon points="82,317 89,317 85,311" fill="#000000" /><polygon points="70,311 78,311 74,304" fill="#000000" /><polygon points="78,311 85,311 82,304" fill="#000000" /><polygon points="74,304 82,304 78,297" fill="#000000" /><polygon points="93,324 101,324 97,317" fill="#000000" /><polygon points="101,324 109,324 105,317" fill="#000000" /><polygon points="97,317 105,317 101,311" fill="#000000" /><polygon points="109,324 117,324 113,317" fill="#000000" /><polygon points="117,324 125,324 121,317" fill="#000000" /><polygon points="113,317 121,317 117,311" fill="#000000" /><polygon points="101,311 109,311 105,304" fill="#000000" /><polygon points="109,311 117,311 113,304" fill="#000000" /><polygon points="105,304 113,304 109,297" fill="#000000" /><polygon points="78,297 85,297 82,290" fill="#000000" /><polygon points="85,297 93,297 89,290" fill="#000000" /><polygon points="82,290 89,290 85,284" fill="#000000" /><polygon points="93,297 101,297 97,290" fill="#000000" /><polygon points="101,297 109,297 105,290" fill="#000000" /><polygon points="97,290 105,290 101,284" fill="#000000" /><polygon points="85,284 93,284 89,277" fill="#000000" /><polygon points="93,284 101,284 97,277" fill="#000000" /><polygon points="89,277 97,277 93,270" fill="#000000" /><polygon points="125,324 132,324 128,317" fill="#000000" /><polygon points="132,324 140,324 136,317" fill="#000000" /><polygon points="128,317 136,317 132,311" fill="#000000" /><polygon points="140,324 148,324 144,317" fill="#000000" /><polygon points="148,324 156,324 152,317" fill="#000000" /><polygon points="144,317 152,317 148,311" fill="#000000" /><polygon points="132,311 140,311 136,304" fill="#000000" /><polygon points="140,311 148,311 144,304" fill="#000000" /><polygon points="136,304 144,304 140,297" fill="#000000" /><polygon points="156,324 164,324 160,317" fill="#000000" /><polygon points="164,324 171,324 167,317" fill="#000000" /><polygon points="160,317 167,317 164,311" fill="#000000" /><polygon points="171,324 179,324 175,317" fill="#000000" /><polygon points="179,324 187,324 183,317" fill="#000000" /><polygon points="175,317 183,317 179,311" fill="#000000" /><polygon points="164,311 171,311 167,304" fill="#000000" /><polygon points="171,311 179,311 175,304" fill="#000000" /><polygon points="167,304 175,304 171,297" fill="#000000" /><polygon points="140,297 148,297 144,290" fill="#000000" /><polygon points="148,297 156,297 152,290" fill="#000000" /><polygon points="144,290 152,290 148,284" fill="#000000" /><polygon points="156,297 164,297 160,290" fill="#000000" /><polygon points="164,297 171,297 167,290" fill="#000000" /><polygon points="160,290 167,290 164,284" fill="#000000" /><polygon points="148,284 156,284 152,277" fill="#000000" /><polygon points="156,284 164,284 160,277" fill="#000000" /><polygon points="152,277 160,277 156,270" fill="#000000" /><polygon points="93,270 101,270 97,263" fill="#000000" /><polygon points="101,270 109,270 105,263" fill="#000000" /><polygon points="97,263 105,263 101,257" fill="#000000" /><polygon points="109,270 117,270 113,263" fill="#000000" /><polygon points="117,270 125,270 121,263" fill="#000000" /><polygon points="113,263 121,263 117,257" fill="#000000" /><polygon points="101,257 109,257 105,250" fill="#000000" /><polygon points="109,257 117,257 113,250" fill="#000000" /><polygon points="105,250 113,250 109,243" fill="#000000" /><polygon points="125,270 132,270 128,263" fill="#000000" /><polygon points="132,270 140,270 136,263" fill="#000000" /><polygon points="128,263 136,263 132,257" fill="#000000" /><polygon points="140,270 148,270 144,263" fill="#000000" /><polygon points="148,270 156,270 152,263" fill="#000000" /><polygon points="144,263 152,263 148,257" fill="#000000" /><polygon points="132,257 140,257 136,250" fill="#000000" /><polygon points="140,257 148,257 144,250" fill="#000000" /><polygon points="136,250 144,250 140,243" fill="#000000" /><polygon points="109,243 117,243 113,236" fill="#000000" /><polygon points="117,243 125,243 121,236" fill="#000000" /><polygon points="113,236 121,236 117,230" fill="#000000" /><polygon points="125,243 132,243 128,236" fill="#000000" /><polygon points="132,243 140,243 136,236" fill="#000000" /><polygon points="128,236 136,236 132,230" fill="#000000" /><polygon points="117,230 125,230 121,223" fill="#000000" /><polygon points="125,230 132,230 128,223" fill="#000000" /><polygon points="121,223 128,223 125,216" fill="#000000" /><polygon points="250,433 257,433 253,426" fill="#000000" /><polygon points="257,433 265,433 261,426" fill="#000000" /><polygon points="253,426 261,426 257,419" fill="#000000" /><polygon points="265,433 273,433 269,426" fill="#000000" /><polygon points="273,433 281,433 277,426" fill="#000000" /><polygon points="269,426 277,426 273,419" fill="#000000" /><polygon points="257,419 265,419 261,412" fill="#000000" /><polygon points="265,419 273,419 269,412" fill="#000000" /><polygon points="261,412 269,412 265,405" fill="#000000" /><polygon points="281,433 289,433 285,426" fill="#000000" /><polygon points="289,433 296,433 292,426" fill="#000000" /><polygon points="285,426 292,426 289,419" fill="#000000" /><polygon points="296,433 304,433 300,426" fill="#000000" /><polygon points="304,433 312,433 308,426" fill="#000000" /><polygon points="300,426 308,426 304,419" fill="#000000" /><polygon points="289,419 296,419 292,412" fill="#000000" /><polygon points="296,419 304,419 300,412" fill="#000000" /><polygon points="292,412 300,412 296,405" fill="#000000" /><polygon points="265,405 273,405 269,399" fill="#000000" /><polygon points="273,405 281,405 277,399" fill="#000000" /><polygon points="269,399 277,399 273,392" fill="#000000" /><polygon points="281,405 289,405 285,399" fill="#000000" /><polygon points="289,405 296,405 292,399" fill="#000000" /><polygon points="285,399 292,399 289,392" fill="#000000" /><polygon points="273,392 281,392 277,385" fill="#000000" /><polygon points="281,392 289,392 285,385" fill="#000000" /><polygon points="277,385 285,385 281,378" fill="#000000" /><polygon points="312,433 320,433 316,426" fill="#000000" /><polygon points="320,433 328,433 324,426" fill="#000000" /><polygon points="316,426 324,426 320,419" fill="#000000" /><polygon points="328,433 335,433 332,426" fill="#000000" /><polygon points="335,433 343,433 339,426" fill="#000000" /><polygon points="332,426 339,426 335,419" fill="#000000" /><polygon points="320,419 328,419 324,412" fill="#000000" /><polygon points="328,419 335,419 332,412" fill="#000000" /><polygon points="324,412 332,412 328,405" fill="#000000" /><polygon points="343,433 351,433 347,426" fill="#000000" /><polygon points="351,433 359,433 355,426" fill="#000000" /><polygon points="347,426 355,426 351,419" fill="#000000" /><polygon points="359,433 367,433 363,426" fill="#000000" /><polygon points="367,433 375,433 371,426" fill="#000000" /><polygon points="363,426 371,426 367,419" fill="#000000" /><polygon points="351,419 359,419 355,412" fill="#000000" /><polygon points="359,419 367,419 363,412" fill="#000000" /><polygon points="355,412 363,412 359,405" fill="#000000" /><polygon points="328,405 335,405 332,399" fill="#000000" /><polygon points="335,405 343,405 339,399" fill="#000000" /><polygon points="332,399 339,399 335,392" fill="#000000" /><polygon points="343,405 351,405 347,399" fill="#000000" /><polygon points="351,405 359,405 355,399" fill="#000000" /><polygon points="347,399 355,399 351,392" fill="#000000" /><polygon points="335,392 343,392 339,385" fill="#000000" /><polygon points="343,392 351,392 347,385" fill="#000000" /><polygon points="339,385 347,385 343,378" fill="#000000" /><polygon points="281,378 289,378 285,372" fill="#000000" /><polygon points="289,378 296,378 292,372" fill="#000000" /><polygon points="285,372 292,372 289,365" fill="#000000" /><polygon points="296,378 304,378 300,372" fill="#000000" /><polygon points="304,378 312,378 308,372" fill="#000000" /><polygon points="300,372 308,372 304,365" fill="#000000" /><polygon points="289,365 296,365 292,358" fill="#000000" /><polygon points="296,365 304,365 300,358" fill="#000000" /><polygon points="292,358 300,358 296,351" fill="#000000" /><polygon points="312,378 320,378 316,372" fill="#000000" /><polygon points="320,378 328,378 324,372" fill="#000000" /><polygon points="316,372 324,372 320,365" fill="#000000" /><polygon points="328,378 335,378 332,372" fill="#000000" /><polygon points="335,378 343,378 339,372" fill="#000000" /><polygon points="332,372 339,372 335,365" fill="#000000" /><polygon points="320,365 328,365 324,358" fill="#000000" /><polygon points="328,365 335,365 332,358" fill="#000000" /><polygon points="324,358 332,358 328,351" fill="#000000" /><polygon points="296,351 304,351 300,345" fill="#000000" /><polygon points="304,351 312,351 308,345" fill="#000000" /><polygon points="300,345 308,345 304,338" fill="#000000" /><polygon points="312,351 320,351 316,345" fill="#000000" /><polygon points="320,351 328,351 324,345" fill="#000000" /><polygon points="316,345 324,345 320,338" fill="#000000" /><polygon points="304,338 312,338 308,331" fill="#000000" /><polygon points="312,338 320,338 316,331" fill="#000000" /><polygon points="308,331 316,331 312,324" fill="#000000" /><polygon points="375,433 382,433 378,426" fill="#000000" /><polygon points="382,433 390,433 386,426" fill="#000000" /><polygon points="378,426 386,426 382,419" fill="#000000" /><polygon points="390,433 398,433 394,426" fill="#000000" /><polygon points="398,433 406,433 402,426" fill="#000000" /><polygon points="394,426 402,426 398,419" fill="#000000" /><polygon points="382,419 390,419 386,412" fill="#000000" /><polygon points="390,419 398,419 394,412" fill="#000000" /><polygon points="386,412 394,412 390,405" fill="#000000" /><polygon points="406,433 414,433 410,426" fill="#000000" /><polygon points="414,433 421,433 417,426" fill="#000000" /><polygon points="410,426 417,426 414,419" fill="#000000" /><polygon points="421,433 429,433 425,426" fill="#000000" /><polygon points="429,433 437,433 433,426" fill="#000000" /><polygon points="425,426 433,426 429,419" fill="#000000" /><polygon points="414,419 421,419 417,412" fill="#000000" /><polygon points="421,419 429,419 425,412" fill="#000000" /><polygon points="417,412 425,412 421,405" fill="#000000" /><polygon points="390,405 398,405 394,399" fill="#000000" /><polygon points="398,405 406,405 402,399" fill="#000000" /><polygon points="394,399 402,399 398,392" fill="#000000" /><polygon points="406,405 414,405 410,399" fill="#000000" /><polygon points="414,405 421,405 417,399" fill="#000000" /><polygon points="410,399 417,399 414,392" fill="#000000" /><polygon points="398,392 406,392 402,385" fill="#000000" /><polygon points="406,392 414,392 410,385" fill="#000000" /><polygon points="402,385 410,385 406,378" fill="#000000" /><polygon points="437,433 445,433 441,426" fill="#000000" /><polygon points="445,433 453,433 449,426" fill="#000000" /><polygon points="441,426 449,426 445,419" fill="#000000" /><polygon points="453,433 460,433 457,426" fill="#000000" /><polygon points="460,433 468,433 464,426" fill="#000000" /><polygon points="457,426 464,426 460,419" fill="#000000" /><polygon points="445,419 453,419 449,412" fill="#000000" /><polygon points="453,419 460,419 457,412" fill="#000000" /><polygon points="449,412 457,412 453,405" fill="#000000" /><polygon points="468,433 476,433 472,426" fill="#000000" /><polygon points="476,433 484,433 480,426" fill="#000000" /><polygon points="472,426 480,426 476,419" fill="#000000" /><polygon points="484,433 492,433 488,426" fill="#000000" /><polygon points="492,433 500,433 496,426" fill="#000000" /><polygon points="488,426 496,426 492,419" fill="#000000" /><polygon points="476,419 484,419 480,412" fill="#000000" /><polygon points="484,419 492,419 488,412" fill="#000000" /><polygon points="480,412 488,412 484,405" fill="#000000" /><polygon points="453,405 460,405 457,399" fill="#000000" /><polygon points="460,405 468,405 464,399" fill="#000000" /><polygon points="457,399 464,399 460,392" fill="#000000" /><polygon points="468,405 476,405 472,399" fill="#000000" /><polygon points="476,405 484,405 480,399" fill="#000000" /><polygon points="472,399 480,399 476,392" fill="#000000" /><polygon points="460,392 468,392 464,385" fill="#000000" /><polygon points="468,392 476,392 472,385" fill="#000000" /><polygon points="464,385 472,385 468,378" fill="#000000" /><polygon points="406,378 414,378 410,372" fill="#000000" /><polygon points="414,378 421,378 417,372" fill="#000000" /><polygon points="410,372 417,372 414,365" fill="#000000" /><polygon points="421,378 429,378 425,372" fill="#000000" /><polygon points="429,378 437,378 433,372" fill="#000000" /><polygon points="425,372 433,372 429,365" fill="#000000" /><polygon points="414,365 421,365 417,358" fill="#000000" /><polygon points="421,365 429,365 425,358" fill="#000000" /><polygon points="417,358 425,358 421,351" fill="#000000" /><polygon points="437,378 445,378 441,372" fill="#000000" /><polygon points="445,378 453,378 449,372" fill="#000000" /><polygon points="441,372 449,372 445,365" fill="#000000" /><polygon points="453,378 460,378 457,372" fill="#000000" /><polygon points="460,378 468,378 464,372" fill="#000000" /><polygon points="457,372 464,372 460,365" fill="#000000" /><polygon points="445,365 453,365 449,358" fill="#000000" /><polygon points="453,365 460,365 457,358" fill="#000000" /><polygon points="449,358 457,358 453,351" fill="#000000" /><polygon points="421,351 429,351 425,345" fill="#000000" /><polygon points="429,351 437,351 433,345" fill="#000000" /><polygon points="425,345 433,345 429,338" fill="#000000" /><polygon points="437,351 445,351 441,345" fill="#000000" /><polygon points="445,351 453,351 449,345" fill="#000000" /><polygon points="441,345 449,345 445,338" fill="#000000" /><polygon points="429,338 437,338 433,331" fill="#000000" /><polygon points="437,338 445,338 441,331" fill="#000000" /><polygon points="433,331 441,331 437,324" fill="#000000" /><polygon points="312,324 320,324 316,317" fill="#000000" /><polygon points="320,324 328,324 324,317" fill="#000000" /><polygon points="316,317 324,317 320,311" fill="#000000" /><polygon points="328,324 335,324 332,317" fill="#000000" /><polygon points="335,324 343,324 339,317" fill="#000000" /><polygon points="332,317 339,317 335,311" fill="#000000" /><polygon points="320,311 328,311 324,304" fill="#000000" /><polygon points="328,311 335,311 332,304" fill="#000000" /><polygon points="324,304 332,304 328,297" fill="#000000" /><polygon points="343,324 351,324 347,317" fill="#000000" /><polygon points="351,324 359,324 355,317" fill="#000000" /><polygon points="347,317 355,317 351,311" fill="#000000" /><polygon points="359,324 367,324 363,317" fill="#000000" /><polygon points="367,324 375,324 371,317" fill="#000000" /><polygon points="363,317 371,317 367,311" fill="#000000" /><polygon points="351,311 359,311 355,304" fill="#000000" /><polygon points="359,311 367,311 363,304" fill="#000000" /><polygon points="355,304 363,304 359,297" fill="#000000" /><polygon points="328,297 335,297 332,290" fill="#000000" /><polygon points="335,297 343,297 339,290" fill="#000000" /><polygon points="332,290 339,290 335,284" fill="#000000" /><polygon points="343,297 351,297 347,290" fill="#000000" /><polygon points="351,297 359,297 355,290" fill="#000000" /><polygon points="347,290 355,290 351,284" fill="#000000" /><polygon points="335,284 343,284 339,277" fill="#000000" /><polygon points="343,284 351,284 347,277" fill="#000000" /><polygon points="339,277 347,277 343,270" fill="#000000" /><polygon points="375,324 382,324 378,317" fill="#000000" /><polygon points="382,324 390,324 386,317" fill="#000000" /><polygon points="378,317 386,317 382,311" fill="#000000" /><polygon points="390,324 398,324 394,317" fill="#000000" /><polygon points="398,324 406,324 402,317" fill="#000000" /><polygon points="394,317 402,317 398,311" fill="#000000" /><polygon points="382,311 390,311 386,304" fill="#000000" /><polygon points="390,311 398,311 394,304" fill="#000000" /><polygon points="386,304 394,304 390,297" fill="#000000" /><polygon points="406,324 414,324 410,317" fill="#000000" /><polygon points="414,324 421,324 417,317" fill="#000000" /><polygon points="410,317 417,317 414,311" fill="#000000" /><polygon points="421,324 429,324 425,317" fill="#000000" /><polygon points="429,324 437,324 433,317" fill="#000000" /><polygon points="425,317 433,317 429,311" fill="#000000" /><polygon points="414,311 421,311 417,304" fill="#000000" /><polygon points="421,311 429,311 425,304" fill="#000000" /><polygon points="417,304 425,304 421,297" fill="#000000" /><polygon points="390,297 398,297 394,290" fill="#000000" /><polygon points="398,297 406,297 402,290" fill="#000000" /><polygon points="394,290 402,290 398,284" fill="#000000" /><polygon points="406,297 414,297 410,290" fill="#000000" /><polygon points="414,297 421,297 417,290" fill="#000000" /><polygon points="410,290 417,290 414,284" fill="#000000" /><polygon points="398,284 406,284 402,277" fill="#000000" /><polygon points="406,284 414,284 410,277" fill="#000000" /><polygon points="402,277 410,277 406,270" fill="#000000" /><polygon points="343,270 351,270 347,263" fill="#000000" /><polygon points="351,270 359,270 355,263" fill="#000000" /><polygon points="347,263 355,263 351,257" fill="#000000" /><polygon points="359,270 367,270 363,263" fill="#000000" /><polygon points="367,270 375,270 371,263" fill="#000000" /><polygon points="363,263 371,263 367,257" fill="#000000" /><polygon points="351,257 359,257 355,250" fill="#000000" /><polygon points="359,257 367,257 363,250" fill="#000000" /><polygon points="355,250 363,250 359,243" fill="#000000" /><polygon points="375,270 382,270 378,263" fill="#000000" /><polygon points="382,270 390,270 386,263" fill="#000000" /><polygon points="378,263 386,263 382,257" fill="#000000" /><polygon points="390,270 398,270 394,263" fill="#000000" /><polygon points="398,270 406,270 402,263" fill="#000000" /><polygon points="394,263 402,263 398,257" fill="#000000" /><polygon points="382,257 390,257 386,250" fill="#000000" /><polygon points="390,257 398,257 394,250" fill="#000000" /><polygon points="386,250 394,250 390,243" fill="#000000" /><polygon points="359,243 367,243 363,236" fill="#000000" /><polygon points="367,243 375,243 371,236" fill="#000000" /><polygon points="363,236 371,236 367,230" fill="#000000" /><polygon points="375,243 382,243 378,236" fill="#000000" /><polygon points="382,243 390,243 386,236" fill="#000000" /><polygon points="378,236 386,236 382,230" fill="#000000" /><polygon points="367,230 375,230 371,223" fill="#000000" /><polygon points="375,230 382,230 378,223" fill="#000000" /><polygon points="371,223 378,223 375,216" fill="#000000" /><polygon points="125,216 132,216 128,209" fill="#000000" /><polygon points="132,216 140,216 136,209" fill="#000000" /><polygon points="128,209 136,209 132,202" fill="#000000" /><polygon points="140,216 148,216 144,209" fill="#000000" /><polygon points="148,216 156,216 152,209" fill="#000000" /><polygon points="144,209 152,209 148,202" fill="#000000" /><polygon points="132,202 140,202 136,196" fill="#000000" /><polygon points="140,202 148,202 144,196" fill="#000000" /><polygon points="136,196 144,196 140,189" fill="#000000" /><polygon points="156,216 164,216 160,209" fill="#000000" /><polygon points="164,216 171,216 167,209" fill="#000000" /><polygon points="160,209 167,209 164,202" fill="#000000" /><polygon points="171,216 179,216 175,209" fill="#000000" /><polygon points="179,216 187,216 183,209" fill="#000000" /><polygon points="175,209 183,209 179,202" fill="#000000" /><polygon points="164,202 171,202 167,196" fill="#000000" /><polygon points="171,202 179,202 175,196" fill="#000000" /><polygon points="167,196 175,196 171,189" fill="#000000" /><polygon points="140,189 148,189 144,182" fill="#000000" /><polygon points="148,189 156,189 152,182" fill="#000000" /><polygon points="144,182 152,182 148,175" fill="#000000" /><polygon points="156,189 164,189 160,182" fill="#000000" /><polygon points="164,189 171,189 167,182" fill="#000000" /><polygon points="160,182 167,182 164,175" fill="#000000" /><polygon points="148,175 156,175 152,169" fill="#000000" /><polygon points="156,175 164,175 160,169" fill="#000000" /><polygon points="152,169 160,169 156,162" fill="#000000" /><polygon points="187,216 195,216 191,209" fill="#000000" /><polygon points="195,216 203,216 199,209" fill="#000000" /><polygon points="191,209 199,209 195,202" fill="#000000" /><polygon points="203,216 210,216 207,209" fill="#000000" /><polygon points="210,216 218,216 214,209" fill="#000000" /><polygon points="207,209 214,209 210,202" fill="#000000" /><polygon points="195,202 203,202 199,196" fill="#000000" /><polygon points="203,202 210,202 207,196" fill="#000000" /><polygon points="199,196 207,196 203,189" fill="#000000" /><polygon points="218,216 226,216 222,209" fill="#000000" /><polygon points="226,216 234,216 230,209" fill="#000000" /><polygon points="222,209 230,209 226,202" fill="#000000" /><polygon points="234,216 242,216 238,209" fill="#000000" /><polygon points="242,216 250,216 246,209" fill="#000000" /><polygon points="238,209 246,209 242,202" fill="#000000" /><polygon points="226,202 234,202 230,196" fill="#000000" /><polygon points="234,202 242,202 238,196" fill="#000000" /><polygon points="230,196 238,196 234,189" fill="#000000" /><polygon points="203,189 210,189 207,182" fill="#000000" /><polygon points="210,189 218,189 214,182" fill="#000000" /><polygon points="207,182 214,182 210,175" fill="#000000" /><polygon points="218,189 226,189 222,182" fill="#000000" /><polygon points="226,189 234,189 230,182" fill="#000000" /><polygon points="222,182 230,182 226,175" fill="#000000" /><polygon points="210,175 218,175 214,169" fill="#000000" /><polygon points="218,175 226,175 222,169" fill="#000000" /><polygon points="214,169 222,169 218,162" fill="#000000" /><polygon points="156,162 164,162 160,155" fill="#000000" /><polygon points="164,162 171,162 167,155" fill="#000000" /><polygon points="160,155 167,155 164,148" fill="#000000" /><polygon points="171,162 179,162 175,155" fill="#000000" /><polygon points="179,162 187,162 183,155" fill="#000000" /><polygon points="175,155 183,155 179,148" fill="#000000" /><polygon points="164,148 171,148 167,142" fill="#000000" /><polygon points="171,148 179,148 175,142" fill="#000000" /><polygon points="167,142 175,142 171,135" fill="#000000" /><polygon points="187,162 195,162 191,155" fill="#000000" /><polygon points="195,162 203,162 199,155" fill="#000000" /><polygon points="191,155 199,155 195,148" fill="#000000" /><polygon points="203,162 210,162 207,155" fill="#000000" /><polygon points="210,162 218,162 214,155" fill="#000000" /><polygon points="207,155 214,155 210,148" fill="#000000" /><polygon points="195,148 203,148 199,142" fill="#000000" /><polygon points="203,148 210,148 207,142" fill="#000000" /><polygon points="199,142 207,142 203,135" fill="#000000" /><polygon points="171,135 179,135 175,128" fill="#000000" /><polygon points="179,135 187,135 183,128" fill="#000000" /><polygon points="175,128 183,128 179,121" fill="#000000" /><polygon points="187,135 195,135 191,128" fill="#000000" /><polygon points="195,135 203,135 199,128" fill="#000000" /><polygon points="191,128 199,128 195,121" fill="#000000" /><polygon points="179,121 187,121 183,115" fill="#000000" /><polygon points="187,121 195,121 191,115" fill="#000000" /><polygon points="183,115 191,115 187,108" fill="#000000" /><polygon points="250,216 257,216 253,209" fill="#000000" /><polygon points="257,216 265,216 261,209" fill="#000000" /><polygon points="253,209 261,209 257,202" fill="#000000" /><polygon points="265,216 273,216 269,209" fill="#000000" /><polygon points="273,216 281,216 277,209" fill="#000000" /><polygon points="269,209 277,209 273,202" fill="#000000" /><polygon points="257,202 265,202 261,196" fill="#000000" /><polygon points="265,202 273,202 269,196" fill="#000000" /><polygon points="261,196 269,196 265,189" fill="#000000" /><polygon points="281,216 289,216 285,209" fill="#000000" /><polygon points="289,216 296,216 292,209" fill="#000000" /><polygon points="285,209 292,209 289,202" fill="#000000" /><polygon points="296,216 304,216 300,209" fill="#000000" /><polygon points="304,216 312,216 308,209" fill="#000000" /><polygon points="300,209 308,209 304,202" fill="#000000" /><polygon points="289,202 296,202 292,196" fill="#000000" /><polygon points="296,202 304,202 300,196" fill="#000000" /><polygon points="292,196 300,196 296,189" fill="#000000" /><polygon points="265,189 273,189 269,182" fill="#000000" /><polygon points="273,189 281,189 277,182" fill="#000000" /><polygon points="269,182 277,182 273,175" fill="#000000" /><polygon points="281,189 289,189 285,182" fill="#000000" /><polygon points="289,189 296,189 292,182" fill="#000000" /><polygon points="285,182 292,182 289,175" fill="#000000" /><polygon points="273,175 281,175 277,169" fill="#000000" /><polygon points="281,175 289,175 285,169" fill="#000000" /><polygon points="277,169 285,169 281,162" fill="#000000" /><polygon points="312,216 320,216 316,209" fill="#000000" /><polygon points="320,216 328,216 324,209" fill="#000000" /><polygon points="316,209 324,209 320,202" fill="#000000" /><polygon points="328,216 335,216 332,209" fill="#000000" /><polygon points="335,216 343,216 339,209" fill="#000000" /><polygon points="332,209 339,209 335,202" fill="#000000" /><polygon points="320,202 328,202 324,196" fill="#000000" /><polygon points="328,202 335,202 332,196" fill="#000000" /><polygon points="324,196 332,196 328,189" fill="#000000" /><polygon points="343,216 351,216 347,209" fill="#000000" /><polygon points="351,216 359,216 355,209" fill="#000000" /><polygon points="347,209 355,209 351,202" fill="#000000" /><polygon points="359,216 367,216 363,209" fill="#000000" /><polygon points="367,216 375,216 371,209" fill="#000000" /><polygon points="363,209 371,209 367,202" fill="#000000" /><polygon points="351,202 359,202 355,196" fill="#000000" /><polygon points="359,202 367,202 363,196" fill="#000000" /><polygon points="355,196 363,196 359,189" fill="#000000" /><polygon points="328,189 335,189 332,182" fill="#000000" /><polygon points="335,189 343,189 339,182" fill="#000000" /><polygon points="332,182 339,182 335,175" fill="#000000" /><polygon points="343,189 351,189 347,182" fill="#000000" /><polygon points="351,189 359,189 355,182" fill="#000000" /><polygon points="347,182 355,182 351,175" fill="#000000" /><polygon points="335,175 343,175 339,169" fill="#000000" /><polygon points="343,175 351,175 347,169" fill="#000000" /><polygon points="339,169 347,169 343,162" fill="#000000" /><polygon points="281,162 289,162 285,155" fill="#000000" /><polygon points="289,162 296,162 292,155" fill="#000000" /><polygon points="285,155 292,155 289,148" fill="#000000" /><polygon points="296,162 304,162 300,155" fill="#000000" /><polygon points="304,162 312,162 308,155" fill="#000000" /><polygon points="300,155 308,155 304,148" fill="#000000" /><polygon points="289,148 296,148 292,142" fill="#000000" /><polygon points="296,148 304,148 300,142" fill="#000000" /><polygon points="292,142 300,142 296,135" fill="#000000" /><polygon points="312,162 320,162 316,155" fill="#000000" /><polygon points="320,162 328,162 324,155" fill="#000000" /><polygon points="316,155 324,155 320,148" fill="#000000" /><polygon points="328,162 335,162 332,155" fill="#000000" /><polygon points="335,162 343,162 339,155" fill="#000000" /><polygon points="332,155 339,155 335,148" fill="#000000" /><polygon points="320,148 328,148 324,142" fill="#000000" /><polygon points="328,148 335,148 332,142" fill="#000000" /><polygon points="324,142 332,142 328,135" fill="#000000" /><polygon points="296,135 304,135 300,128" fill="#000000" /><polygon points="304,135 312,135 308,128" fill="#000000" /><polygon points="300,128 308,128 304,121" fill="#000000" /><polygon points="312,135 320,135 316,128" fill="#000000" /><polygon points="320,135 328,135 324,128" fill="#000000" /><polygon points="316,128 324,128 320,121" fill="#000000" /><polygon points="304,121 312,121 308,115" fill="#000000" /><polygon points="312,121 320,121 316,115" fill="#000000" /><polygon points="308,115 316,115 312,108" fill="#000000" /><polygon points="187,108 195,108 191,101" fill="#000000" /><polygon points="195,108 203,108 199,101" fill="#000000" /><polygon points="191,101 199,101 195,94" fill="#000000" /><polygon points="203,108 210,108 207,101" fill="#000000" /><polygon points="210,108 218,108 214,101" fill="#000000" /><polygon points="207,101 214,101 210,94" fill="#000000" /><polygon points="195,94 203,94 199,87" fill="#000000" /><polygon points="203,94 210,94 207,87" fill="#000000" /><polygon points="199,87 207,87 203,81" fill="#000000" /><polygon points="218,108 226,108 222,101" fill="#000000" /><polygon points="226,108 234,108 230,101" fill="#000000" /><polygon points="222,101 230,101 226,94" fill="#000000" /><polygon points="234,108 242,108 238,101" fill="#000000" /><polygon points="242,108 250,108 246,101" fill="#000000" /><polygon points="238,101 246,101 242,94" fill="#000000" /><polygon points="226,94 234,94 230,87" fill="#000000" /><polygon points="234,94 242,94 238,87" fill="#000000" /><polygon points="230,87 238,87 234,81" fill="#000000" /><polygon points="203,81 210,81 207,74" fill="#000000" /><polygon points="210,81 218,81 214,74" fill="#000000" /><polygon points="207,74 214,74 210,67" fill="#000000" /><polygon points="218,81 226,81 222,74" fill="#000000" /><polygon points="226,81 234,81 230,74" fill="#000000" /><polygon points="222,74 230,74 226,67" fill="#000000" /><polygon points="210,67 218,67 214,60" fill="#000000" /><polygon points="218,67 226,67 222,60" fill="#000000" /><polygon points="214,60 222,60 218,54" fill="#000000" /><polygon points="250,108 257,108 253,101" fill="#000000" /><polygon points="257,108 265,108 261,101" fill="#000000" /><polygon points="253,101 261,101 257,94" fill="#000000" /><polygon points="265,108 273,108 269,101" fill="#000000" /><polygon points="273,108 281,108 277,101" fill="#000000" /><polygon points="269,101 277,101 273,94" fill="#000000" /><polygon points="257,94 265,94 261,87" fill="#000000" /><polygon points="265,94 273,94 269,87" fill="#000000" /><polygon points="261,87 269,87 265,81" fill="#000000" /><polygon points="281,108 289,108 285,101" fill="#000000" /><polygon points="289,108 296,108 292,101" fill="#000000" /><polygon points="285,101 292,101 289,94" fill="#000000" /><polygon points="296,108 304,108 300,101" fill="#000000" /><polygon points="304,108 312,108 308,101" fill="#000000" /><polygon points="300,101 308,101 304,94" fill="#000000" /><polygon points="289,94 296,94 292,87" fill="#000000" /><polygon points="296,94 304,94 300,87" fill="#000000" /><polygon points="292,87 300,87 296,81" fill="#000000" /><polygon points="265,81 273,81 269,74" fill="#000000" /><polygon points="273,81 281,81 277,74" fill="#000000" /><polygon points="269,74 277,74 273,67" fill="#000000" /><polygon points="281,81 289,81 285,74" fill="#000000" /><polygon points="289,81 296,81 292,74" fill="#000000" /><polygon points="285,74 292,74 289,67" fill="#000000" /><polygon points="273,67 281,67 277,60" fill="#000000" /><polygon points="281,67 289,67 285,60" fill="#000000" /><polygon points="277,60 285,60 281,54" fill="#000000" /><polygon points="218,54 226,54 222,47" fill="#000000" /><polygon points="226,54 234,54 230,47" fill="#000000" /><polygon points="222,47 230,47 226,40" fill="#000000" /><polygon points="234,54 242,54 238,47" fill="#000000" /><polygon points="242,54 250,54 246,47" fill="#000000" /><polygon points="238,47 246,47 242,40" fill="#000000" /><polygon points="226,40 234,40 230,33" fill="#000000" /><polygon points="234,40 242,40 238,33" fill="#000000" /><polygon points="230,33 238,33 234,27" fill="#000000" /><polygon points="250,54 257,54 253,47" fill="#000000" /><polygon points="257,54 265,54 261,47" fill="#000000" /><polygon points="253,47 261,47 257,40" fill="#000000" /><polygon points="265,54 273,54 269,47" fill="#000000" /><polygon points="273,54 281,54 277,47" fill="#000000" /><polygon points="269,47 277,47 273,40" fill="#000000" /><polygon points="257,40 265,40 261,33" fill="#000000" /><polygon points="265,40 273,40 269,33" fill="#000000" /><polygon points="261,33 269,33 265,27" fill="#000000" /><polygon points="234,27 242,27 238,20" fill="#000000" /><polygon points="242,27 250,27 246,20" fill="#000000" /><polygon points="238,20 246,20 242,13" fill="#000000" /><polygon points="250,27 257,27 253,20" fill="#000000" /><polygon points="257,27 265,27 261,20" fill="#000000" /><polygon points="253,20 261,20 257,13" fill="#000000" /><polygon points="242,13 250,13 246,6" fill="#000000" /><polygon points="250,13 257,13 253,6" fill="#000000" /><polygon points="246,6 253,6 250,0" fill="#000000" /></svg>